<?xml version="1.0" encoding="utf-8"?>
<!-- Generator: Adobe Illustrator 24.3.0, SVG Export Plug-In . SVG Version: 6.00 Build 0)  -->
<svg version="1.1" id="Laag_1" xmlns="http://www.w3.org/2000/svg" xmlns:xlink="http://www.w3.org/1999/xlink" x="0px" y="0px"
	 viewBox="0 0 789.47 157.89" style="enable-background:new 0 0 789.47 157.89;" xml:space="preserve">
<style type="text/css">
	.st0{fill:#324F6D;}
	.st1{fill:#FFFFFF;}
	.st2{fill:#5282C2;}
</style>
<g>
	<path class="st0" d="M349.9,33.57v109.82h-19.05V33.57h-29.03V15.41h77.02v18.15H349.9z"/>
	<path class="st0" d="M438.62,88.85l39.08,54.54h-23.3l-36.06-52.38h-3.43v52.38h-19.05V15.41h22.32c16.68,0,28.73,3.18,36.14,9.53
		c8.18,7.07,12.26,16.41,12.26,28.02c0,9.06-2.56,16.85-7.69,23.37C453.77,82.86,447.01,87.03,438.62,88.85z M414.91,74.18h6.05
		c18.04,0,27.06-6.99,27.06-20.97c0-13.1-8.78-19.64-26.33-19.64h-6.79V74.18z"/>
	<path class="st0" d="M570.83,112.31h-54.05l-14.06,31.08H482.2L544.66,7.37l60.26,136.02h-20.85L570.83,112.31z M563.06,94.16
		l-18.72-43.52l-19.62,43.52H563.06z"/>
	<path class="st0" d="M639.75,15.41v127.98H620.7V15.41H639.75z"/>
	<path class="st0" d="M670.09,143.39V6.71l92.06,97.64V15.41h19.05v135.77l-92.06-97.39v89.6H670.09z"/>
</g>
<g>
	<path class="st1" d="M265.87,147.01H27.98c-13.76,0-24.92-11.16-24.92-24.92V39.55c0-13.76,11.16-24.92,24.92-24.92h237.89
		c13.76,0,24.92,11.16,24.92,24.92v82.55C290.78,135.85,279.63,147.01,265.87,147.01z"/>
	<g>
		<path class="st2" d="M185.9,80.92c-6.54,0-10.66,3.55-10.66,12.9v23.56c0,9.35,4.11,12.72,10.66,12.72s10.66-3.37,10.66-12.72
			V93.82C196.56,84.47,192.45,80.92,185.9,80.92z"/>
		<path class="st2" d="M3.06,131.64c0,8.75,7.09,15.84,15.84,15.84h23.43v-23.74H3.06V131.64z"/>
		<polygon class="st2" points="21.95,105.03 42.33,105.03 42.33,56.61 41.95,56.61 		"/>
		<path class="st2" d="M259.56,33.8c-6.54,0-10.66,3.55-10.66,12.9v70.68c0,9.35,4.11,12.9,10.66,12.9c6.54,0,10.66-3.55,10.66-12.9
			V46.7C270.21,37.35,266.1,33.8,259.56,33.8z"/>
		<path class="st2" d="M41.05,15.1H18.9c-8.75,0-15.84,7.09-15.84,15.84v74.1l36.87-87.2l0,0L41.05,15.1z"/>
		<path class="st2" d="M62.89,16.59L62.89,16.59l0.01,88.44h9.72v18.7h-9.72v23.74h19.06V131.4c0-14.58,5.23-25.61,20.57-41.69
			c15.71-16.64,20.19-26.93,20.19-40.95c0-11.78-4.11-14.96-10.66-14.96c-6.54,0-10.66,3.55-10.66,12.9v14.02H81.95V48.01
			c0-20.94,10.47-32.91,30.66-32.91H62.89V16.59z"/>
		<path class="st2" d="M274.95,15.1h-15.39c20.19,0,31.22,11.97,31.22,32.91V30.94C290.78,22.19,283.69,15.1,274.95,15.1z"/>
		<path class="st2" d="M143.28,48.01c0,17.39-6.36,31.41-25.43,51.79c-12.15,13.09-15.52,19.26-15.52,26.18c0,0.93,0,1.87,0.19,2.8
			h38.89v18.7h33.3c-13.03-3.79-20.04-14.75-20.04-31.41V49.13c0-22.06,10.1-34.03,31.41-34.03h-73.47
			C132.81,15.1,143.28,27.07,143.28,48.01z"/>
		<path class="st2" d="M270.74,147.48h4.21c8.75,0,15.84-7.09,15.84-15.84v-15.58C290.78,132.73,283.77,143.69,270.74,147.48z"/>
		<path class="st2" d="M216.75,48.01v3.37h-19.45V46.7c0-9.35-4.11-12.9-10.66-12.9c-7.29,0-11.4,3.55-11.4,16.08v23.74h0.37
			c3.55-7.48,9.54-11.4,18.7-11.4c15.15,0,22.81,10.66,22.81,29.92v23.93c0,16.67-7.01,27.62-20.04,31.41h51.29
			c-13.03-3.79-20.04-14.75-20.04-31.41V48.01c0-20.94,11.03-32.91,31.23-32.91h-73.47C206.28,15.1,216.75,27.07,216.75,48.01z"/>
	</g>
</g>
</svg>
